<mxfile host="Electron" agent="Mozilla/5.0 (Windows NT 10.0; Win64; x64) AppleWebKit/537.36 (KHTML, like Gecko) draw.io/24.7.17 Chrome/128.0.6613.36 Electron/32.0.1 Safari/537.36" version="24.7.17">
  <diagram name="Página-1" id="4n_jxhYzCh7vXthxd3nl">
    <mxGraphModel dx="875" dy="524" grid="1" gridSize="10" guides="1" tooltips="1" connect="1" arrows="1" fold="1" page="1" pageScale="1" pageWidth="827" pageHeight="1169" math="0" shadow="0">
      <root>
        <mxCell id="0" />
        <mxCell id="1" parent="0" />
        <mxCell id="cv1AFlD6U_SvdbpDYesC-1" value="EMPLEADOS" style="whiteSpace=wrap;html=1;align=center;" vertex="1" parent="1">
          <mxGeometry x="60" y="40" width="100" height="40" as="geometry" />
        </mxCell>
        <mxCell id="cv1AFlD6U_SvdbpDYesC-4" value="&quot;FAMILIARES&quot; es una entidad débil porque si el empleado es despedido los familiares dejan de ser relevantes en la base de datos" style="text;html=1;align=left;verticalAlign=top;whiteSpace=wrap;rounded=0;" vertex="1" parent="1">
          <mxGeometry x="440" y="80" width="180" height="80" as="geometry" />
        </mxCell>
        <mxCell id="cv1AFlD6U_SvdbpDYesC-5" value="FAMILIARES" style="shape=ext;margin=3;double=1;whiteSpace=wrap;html=1;align=center;" vertex="1" parent="1">
          <mxGeometry x="440" y="40" width="100" height="40" as="geometry" />
        </mxCell>
        <mxCell id="cv1AFlD6U_SvdbpDYesC-6" value="Tener" style="shape=rhombus;perimeter=rhombusPerimeter;whiteSpace=wrap;html=1;align=center;" vertex="1" parent="1">
          <mxGeometry x="240" y="30" width="120" height="60" as="geometry" />
        </mxCell>
        <mxCell id="cv1AFlD6U_SvdbpDYesC-7" value="" style="endArrow=none;html=1;rounded=0;exitX=1;exitY=0.5;exitDx=0;exitDy=0;entryX=0;entryY=0.5;entryDx=0;entryDy=0;edgeStyle=orthogonalEdgeStyle;verticalAlign=bottom;" edge="1" parent="1" source="cv1AFlD6U_SvdbpDYesC-1" target="cv1AFlD6U_SvdbpDYesC-6">
          <mxGeometry relative="1" as="geometry">
            <mxPoint x="330" y="80" as="sourcePoint" />
            <mxPoint x="584" y="330" as="targetPoint" />
          </mxGeometry>
        </mxCell>
        <mxCell id="cv1AFlD6U_SvdbpDYesC-8" value="" style="endArrow=none;html=1;rounded=0;exitX=0;exitY=0.5;exitDx=0;exitDy=0;entryX=1;entryY=0.5;entryDx=0;entryDy=0;edgeStyle=orthogonalEdgeStyle;verticalAlign=bottom;" edge="1" parent="1" source="cv1AFlD6U_SvdbpDYesC-5" target="cv1AFlD6U_SvdbpDYesC-6">
          <mxGeometry relative="1" as="geometry">
            <mxPoint x="180" y="70" as="sourcePoint" />
            <mxPoint x="250" y="70" as="targetPoint" />
          </mxGeometry>
        </mxCell>
        <mxCell id="cv1AFlD6U_SvdbpDYesC-9" value="&lt;font face=&quot;Courier New&quot;&gt;E&lt;/font&gt;" style="endArrow=none;html=1;rounded=0;exitX=0;exitY=0;exitDx=0;exitDy=0;entryX=1;entryY=0;entryDx=0;entryDy=0;verticalAlign=bottom;fontSize=8;spacing=0;" edge="1" parent="1" source="cv1AFlD6U_SvdbpDYesC-6" target="cv1AFlD6U_SvdbpDYesC-6">
          <mxGeometry width="50" height="50" relative="1" as="geometry">
            <mxPoint x="450" y="230" as="sourcePoint" />
            <mxPoint x="500" y="180" as="targetPoint" />
          </mxGeometry>
        </mxCell>
        <mxCell id="cv1AFlD6U_SvdbpDYesC-10" value="LIBRO" style="whiteSpace=wrap;html=1;align=center;" vertex="1" parent="1">
          <mxGeometry x="60" y="200" width="100" height="40" as="geometry" />
        </mxCell>
        <mxCell id="cv1AFlD6U_SvdbpDYesC-12" value="EJEMPLAR" style="shape=ext;margin=3;double=1;whiteSpace=wrap;html=1;align=center;" vertex="1" parent="1">
          <mxGeometry x="440" y="200" width="100" height="40" as="geometry" />
        </mxCell>
        <mxCell id="cv1AFlD6U_SvdbpDYesC-13" value="Tener" style="shape=rhombus;perimeter=rhombusPerimeter;whiteSpace=wrap;html=1;align=center;" vertex="1" parent="1">
          <mxGeometry x="240" y="190" width="120" height="60" as="geometry" />
        </mxCell>
        <mxCell id="cv1AFlD6U_SvdbpDYesC-14" value="" style="endArrow=none;html=1;rounded=0;exitX=1;exitY=0.5;exitDx=0;exitDy=0;entryX=0;entryY=0.5;entryDx=0;entryDy=0;edgeStyle=orthogonalEdgeStyle;verticalAlign=bottom;" edge="1" parent="1" target="cv1AFlD6U_SvdbpDYesC-13" source="cv1AFlD6U_SvdbpDYesC-10">
          <mxGeometry relative="1" as="geometry">
            <mxPoint x="160" y="220" as="sourcePoint" />
            <mxPoint x="584" y="490" as="targetPoint" />
          </mxGeometry>
        </mxCell>
        <mxCell id="cv1AFlD6U_SvdbpDYesC-15" value="" style="endArrow=none;html=1;rounded=0;exitX=0;exitY=0.5;exitDx=0;exitDy=0;entryX=1;entryY=0.5;entryDx=0;entryDy=0;edgeStyle=orthogonalEdgeStyle;verticalAlign=bottom;" edge="1" parent="1" source="cv1AFlD6U_SvdbpDYesC-12" target="cv1AFlD6U_SvdbpDYesC-13">
          <mxGeometry relative="1" as="geometry">
            <mxPoint x="180" y="230" as="sourcePoint" />
            <mxPoint x="250" y="230" as="targetPoint" />
          </mxGeometry>
        </mxCell>
        <mxCell id="cv1AFlD6U_SvdbpDYesC-16" value="&lt;font face=&quot;Courier New&quot;&gt;I&lt;/font&gt;" style="endArrow=none;html=1;rounded=0;exitX=0;exitY=0;exitDx=0;exitDy=0;entryX=1;entryY=0;entryDx=0;entryDy=0;verticalAlign=bottom;fontSize=8;spacing=0;elbow=horizontal;" edge="1" parent="1" source="cv1AFlD6U_SvdbpDYesC-13" target="cv1AFlD6U_SvdbpDYesC-13">
          <mxGeometry width="50" height="50" relative="1" as="geometry">
            <mxPoint x="450" y="390" as="sourcePoint" />
            <mxPoint x="500" y="340" as="targetPoint" />
          </mxGeometry>
        </mxCell>
        <mxCell id="cv1AFlD6U_SvdbpDYesC-18" value="Existencia" style="text;html=1;align=center;verticalAlign=middle;whiteSpace=wrap;rounded=0;" vertex="1" parent="1">
          <mxGeometry x="340" y="20" width="60" height="30" as="geometry" />
        </mxCell>
        <mxCell id="cv1AFlD6U_SvdbpDYesC-25" value="Identificación" style="text;html=1;align=center;verticalAlign=middle;whiteSpace=wrap;rounded=0;" vertex="1" parent="1">
          <mxGeometry x="340" y="180" width="80" height="30" as="geometry" />
        </mxCell>
      </root>
    </mxGraphModel>
  </diagram>
</mxfile>
